<?xml version="1.0" encoding="UTF-8" standalone="no"?>
<!-- Created with Inkscape (http://www.inkscape.org/) -->

<svg
   width="256"
   height="256"
   viewBox="0 0 256 256"
   version="1.1"
   id="svg1"
   inkscape:version="1.4.1 (1:1.4.1+202503302257+93de688d07)"
   sodipodi:docname="PickleDrawing.svg"
   inkscape:export-filename="PickleDrawing-16.png"
   inkscape:export-xdpi="6"
   inkscape:export-ydpi="6"
   xmlns:inkscape="http://www.inkscape.org/namespaces/inkscape"
   xmlns:sodipodi="http://sodipodi.sourceforge.net/DTD/sodipodi-0.dtd"
   xmlns:xlink="http://www.w3.org/1999/xlink"
   xmlns="http://www.w3.org/2000/svg"
   xmlns:svg="http://www.w3.org/2000/svg">
  <sodipodi:namedview
     id="namedview1"
     pagecolor="#ffffff"
     bordercolor="#000000"
     borderopacity="0.25"
     inkscape:showpageshadow="2"
     inkscape:pageopacity="0.0"
     inkscape:pagecheckerboard="0"
     inkscape:deskcolor="#d1d1d1"
     inkscape:document-units="px"
     inkscape:zoom="2.587037"
     inkscape:cx="127.36578"
     inkscape:cy="125.62634"
     inkscape:window-width="1680"
     inkscape:window-height="977"
     inkscape:window-x="0"
     inkscape:window-y="0"
     inkscape:window-maximized="1"
     inkscape:current-layer="layer2" />
  <defs
     id="defs1">
    <linearGradient
       id="linearGradient8507"
       inkscape:collect="always">
      <stop
         style="stop-color:#22701d;stop-opacity:1;"
         offset="0"
         id="stop8506" />
      <stop
         style="stop-color:#3c7d1e;stop-opacity:1;"
         offset="1"
         id="stop8507" />
    </linearGradient>
    <linearGradient
       id="linearGradient3"
       inkscape:collect="always">
      <stop
         style="stop-color:#22701d;stop-opacity:1;"
         offset="0"
         id="stop3" />
      <stop
         style="stop-color:#749a21;stop-opacity:1;"
         offset="1"
         id="stop4" />
    </linearGradient>
    <inkscape:path-effect
       effect="powerstroke"
       message=""
       id="path-effect3"
       is_visible="true"
       lpeversion="1.3"
       scale_width="1"
       interpolator_type="CentripetalCatmullRom"
       interpolator_beta="0.2"
       start_linecap_type="zerowidth"
       end_linecap_type="zerowidth"
       offset_points="0.28718308,18.782172 | 1,32.5 | 1.5660746,31.717089"
       linejoin_type="round"
       miter_limit="4"
       not_jump="false"
       sort_points="true" />
    <linearGradient
       inkscape:collect="always"
       xlink:href="#linearGradient3"
       id="linearGradient4"
       x1="28.828451"
       y1="123.42992"
       x2="115.47967"
       y2="34.911663"
       gradientUnits="userSpaceOnUse" />
    <linearGradient
       inkscape:collect="always"
       xlink:href="#linearGradient8507"
       id="linearGradient8506"
       gradientUnits="userSpaceOnUse"
       x1="181.89931"
       y1="215.8136"
       x2="7.6342826"
       y2="11.71911" />
    <linearGradient
       inkscape:collect="always"
       xlink:href="#linearGradient3"
       id="linearGradient8508"
       gradientUnits="userSpaceOnUse"
       x1="28.828451"
       y1="123.42992"
       x2="115.47967"
       y2="34.911663" />
  </defs>
  <g
     inkscape:label="Layer 1"
     inkscape:groupmode="layer"
     id="layer1">
    <path
       style="display:none;opacity:1;fill:url(#linearGradient4);fill-rule:nonzero;stroke:none;stroke-width:65;stroke-linecap:round;stroke-dasharray:none;stroke-opacity:1"
       d="m 29.18173,42.595472 v 0 c -0.587955,1.526786 -1.462256,4.726364 -0.992982,8.988787 0.467991,4.250769 2.250702,9.188677 5.905718,13.840238 3.656543,4.653505 8.954488,9.559922 16.115596,16.368733 7.060149,6.712819 14.496392,13.984417 20.979322,22.11002 6.759123,8.47179 10.954726,15.99446 13.292692,22.821 2.902823,8.16966 3.927015,16.818 4.376809,25.25182 0.475391,8.91375 0.306415,17.43785 1.197552,24.90065 0.253361,2.12176 0.59146,4.15879 1.052153,6.11565 1.749329,7.43056 6.735247,15.14752 12.09687,20.51652 5.60625,5.61398 10.95599,8.12739 13.76842,9.08095 2.66445,0.90339 8.84663,2.1291 16.69954,-0.88759 7.71743,-2.96466 15.9472,-9.83163 20.2453,-19.83394 1.09755,-2.55416 2.03225,-5.35322 2.7958,-8.37507 2.67193,-10.57447 3.29671,-24.14331 1.15841,-39.08247 -2.02298,-14.13339 -6.52598,-29.50992 -14.24562,-44.646512 C 136.07727,84.869218 125.17265,72.125759 112.68701,61.65466 100.79111,51.678145 88.150633,44.342361 77.283963,39.510625 66.32042,34.635816 57.218919,32.298676 50.823177,31.79069 c -6.799122,-0.540026 -12.238943,1.268582 -15.858093,3.77796 -3.631604,2.518012 -5.205809,5.527071 -5.783353,7.026819 z"
       id="path8506"
       inkscape:transform-center-x="1.6916024"
       inkscape:transform-center-y="0.77308521"
       sodipodi:nodetypes="csc" />
  </g>
  <g
     inkscape:groupmode="layer"
     id="layer2"
     inkscape:label="Layer 2">
    <rect
       style="opacity:1;fill:#ffffff;fill-opacity:1;stroke:none;stroke-width:65;stroke-linecap:round;stroke-dasharray:none;stroke-opacity:1"
       id="rect8518"
       width="256"
       height="256"
       x="0"
       y="0" />
    <g
       id="g8508"
       transform="matrix(1.3539962,0,0,1.3539962,1.2567055,-38.076881)">
      <path
         style="display:inline;opacity:1;fill:url(#linearGradient8508);fill-rule:nonzero;stroke:none;stroke-width:65;stroke-linecap:round;stroke-dasharray:none;stroke-opacity:1"
         d="m 29.18173,42.595472 v 0 c -0.587955,1.526786 -1.462256,4.726364 -0.992982,8.988787 0.467991,4.250769 2.250702,9.188677 5.905718,13.840238 3.656543,4.653505 8.954488,9.559922 16.115596,16.368733 7.060149,6.712819 14.496392,13.984417 20.979322,22.11002 6.759123,8.47179 10.954726,15.99446 13.292692,22.821 2.902823,8.16966 3.927015,16.818 4.376809,25.25182 0.475391,8.91375 0.306415,17.43785 1.197552,24.90065 0.253361,2.12176 0.59146,4.15879 1.052153,6.11565 1.749329,7.43056 6.735247,15.14752 12.09687,20.51652 5.60625,5.61398 10.95599,8.12739 13.76842,9.08095 2.66445,0.90339 8.84663,2.1291 16.69954,-0.88759 7.71743,-2.96466 15.9472,-9.83163 20.2453,-19.83394 1.09755,-2.55416 2.03225,-5.35322 2.7958,-8.37507 2.67193,-10.57447 3.29671,-24.14331 1.15841,-39.08247 -2.02298,-14.13339 -6.52598,-29.50992 -14.24562,-44.646512 C 136.07727,84.869218 125.17265,72.125759 112.68701,61.65466 100.79111,51.678145 88.150633,44.342361 77.283963,39.510625 66.32042,34.635816 57.218919,32.298676 50.823177,31.79069 c -6.799122,-0.540026 -12.238943,1.268582 -15.858093,3.77796 -3.631604,2.518012 -5.205809,5.527071 -5.783353,7.026819 z"
         id="path8505"
         inkscape:transform-center-x="1.6916024"
         inkscape:transform-center-y="0.77308521"
         sodipodi:nodetypes="csc" />
      <path
         id="path2"
         style="display:inline;fill:url(#linearGradient8506);fill-rule:nonzero;stroke:none;stroke-width:65;stroke-linecap:round;stroke-dasharray:none;stroke-opacity:1"
         inkscape:transform-center-x="1.6916024"
         inkscape:transform-center-y="0.77308521"
         d="m 46.349609,31.771484 c -1.261506,0.09313 -2.461549,0.268996 -3.595703,0.513672 a 2.7063248,2.7063248 0 0 0 -0.625,1.730469 2.7063248,2.7063248 0 0 0 2.707032,2.705078 2.7063248,2.7063248 0 0 0 2.707031,-2.705078 2.7063248,2.7063248 0 0 0 -1.19336,-2.244141 z m 16.257813,2.316407 a 5.4921632,5.4921632 0 0 0 4.269531,2.039062 5.4921632,5.4921632 0 0 0 1.460938,-0.197265 C 66.337726,35.221636 64.426174,34.608487 62.607422,34.087891 Z M 44.148438,40.263672 A 3.7988632,3.7988632 0 0 0 40.349609,44.0625 3.7988632,3.7988632 0 0 0 44.148438,47.861328 3.7988632,3.7988632 0 0 0 47.947266,44.0625 3.7988632,3.7988632 0 0 0 44.148438,40.263672 Z M 74.896484,44.9375 a 3.532526,3.532526 0 0 0 -3.533203,3.53125 3.532526,3.532526 0 0 0 3.533203,3.533203 3.532526,3.532526 0 0 0 3.53125,-3.533203 3.532526,3.532526 0 0 0 -3.53125,-3.53125 z M 28.054688,49.25 c 0.0025,0.736186 0.0446,1.514995 0.134765,2.333984 0.467991,4.250769 2.249281,9.188283 5.904297,13.839844 0.103473,0.131685 0.208346,0.264357 0.314453,0.396484 A 5.5053763,5.5053763 0 0 0 35.839844,62.117188 5.5053763,5.5053763 0 0 0 30.46875,56.613281 5.4091816,5.4091816 0 0 0 31.083984,54.107422 5.4091816,5.4091816 0 0 0 28.054688,49.25 Z M 61.9375,50.181641 a 3.009825,3.009825 0 0 0 -3.009766,3.009765 3.009825,3.009825 0 0 0 0.460938,1.597656 5.3130522,5.3130522 0 0 0 -1.66211,3.859376 5.3130522,5.3130522 0 0 0 5.314454,5.3125 5.3130522,5.3130522 0 0 0 5.3125,-5.3125 5.3130522,5.3130522 0 0 0 -3.445313,-4.97461 3.009825,3.009825 0 0 0 0.03906,-0.482422 3.009825,3.009825 0 0 0 -3.009766,-3.009765 z m 6.388672,13.683593 a 4.592546,4.592546 0 0 0 -4.59375,4.591797 4.592546,4.592546 0 0 0 1.021484,2.888672 3.4269118,3.4269118 0 0 0 -0.410156,-0.02539 3.4269118,3.4269118 0 0 0 -3.427734,3.427735 3.4269118,3.4269118 0 0 0 3.427734,3.425781 3.4269118,3.4269118 0 0 0 3.425781,-3.425781 3.4269118,3.4269118 0 0 0 -0.527343,-1.828125 4.592546,4.592546 0 0 0 1.083984,0.130859 4.592546,4.592546 0 0 0 4.591797,-4.59375 4.592546,4.592546 0 0 0 -4.591797,-4.591798 z m 36.611328,2.472657 a 3.4002259,3.4002259 0 0 0 -3.40039,3.40039 3.4002259,3.4002259 0 0 0 3.40039,3.398438 3.4002259,3.4002259 0 0 0 3.40039,-3.398438 3.4002259,3.4002259 0 0 0 -3.40039,-3.40039 z m -17.117188,4.080078 a 4.1179185,4.1179185 0 0 0 -1.349609,0.236328 2.1522222,2.1522222 0 0 0 -1.996094,1.492187 4.1179185,4.1179185 0 0 0 -0.773437,2.388672 4.1179185,4.1179185 0 0 0 4.11914,4.117188 4.1179185,4.1179185 0 0 0 4.117188,-4.117188 4.1179185,4.1179185 0 0 0 -4.117188,-4.117187 z M 69.564453,87.419922 a 3.5314641,3.5314641 0 0 0 -3.53125,3.53125 3.5314641,3.5314641 0 0 0 3.53125,3.53125 3.5314641,3.5314641 0 0 0 3.53125,-3.53125 3.5314641,3.5314641 0 0 0 -3.53125,-3.53125 z m 51.082027,0.439453 a 2.6763201,2.6763201 0 0 0 -2.67578,2.675781 2.6763201,2.6763201 0 0 0 2.67578,2.677735 2.6763201,2.6763201 0 0 0 2.67774,-2.677735 2.6763201,2.6763201 0 0 0 -2.67774,-2.675781 z M 89.654297,88.207031 A 4.1465964,4.1465964 0 0 0 85.507812,92.353516 4.1465964,4.1465964 0 0 0 89.654297,96.5 4.1465964,4.1465964 0 0 0 93.800781,92.353516 4.1465964,4.1465964 0 0 0 89.654297,88.207031 Z m 47.908203,1.09375 a 3.721616,3.721616 0 0 0 -1.43359,0.628907 3.5050268,3.5050268 0 0 0 -0.38672,-0.02539 3.5050268,3.5050268 0 0 0 -3.50586,3.503906 3.5050268,3.5050268 0 0 0 3.50586,3.505859 3.5050268,3.5050268 0 0 0 1.5625,-0.376953 3.721616,3.721616 0 0 0 0.99023,0.132813 3.721616,3.721616 0 0 0 2.91406,-1.40625 c -1.15412,-2.029999 -2.37208,-4.018595 -3.64648,-5.962892 z m -25.82031,9.716797 a 4.9409246,4.9409246 0 0 0 -4.94141,4.941402 4.9409246,4.9409246 0 0 0 4.94141,4.94141 4.9409246,4.9409246 0 0 0 4.9414,-4.94141 4.9409246,4.9409246 0 0 0 -4.9414,-4.941402 z m 27.27734,3.980472 a 3.8350363,3.8350363 0 0 0 -3.83594,3.83593 3.8350363,3.8350363 0 0 0 3.83594,3.83399 3.8350363,3.8350363 0 0 0 3.83399,-3.83399 3.8350363,3.8350363 0 0 0 -3.83399,-3.83593 z m -15.39844,7.62109 a 2.1340792,2.1340792 0 0 0 -2.13476,2.13477 2.1340792,2.1340792 0 0 0 2.13476,2.13476 2.1340792,2.1340792 0 0 0 2.13282,-2.13476 2.1340792,2.1340792 0 0 0 -2.13282,-2.13477 z m -44.414059,2.01172 a 3.9123881,3.9123881 0 0 0 -1.52539,0.31055 c 1.477924,2.3267 2.750576,4.5765 3.83789,6.75781 a 3.9123881,3.9123881 0 0 0 1.601563,-3.15625 3.9123881,3.9123881 0 0 0 -3.914063,-3.91211 z m 70.277349,0.1582 a 4.818531,4.818531 0 0 0 -3.64649,4.67383 4.818531,4.818531 0 0 0 4.81836,4.81836 4.818531,4.818531 0 0 0 2.03125,-0.44922 c -0.95189,-2.99903 -2.01742,-6.01741 -3.20312,-9.04297 z m -45.32422,1.67578 a 3.1749129,3.1749129 0 0 0 -3.17578,3.17383 3.1749129,3.1749129 0 0 0 0.17968,1.03321 4.2993231,4.2993231 0 0 0 -0.72265,2.36914 4.2993231,4.2993231 0 0 0 4.29882,4.29882 4.2993231,4.2993231 0 0 0 4.29883,-4.29882 4.2993231,4.2993231 0 0 0 -1.70703,-3.42774 3.1749129,3.1749129 0 0 0 -3.17187,-3.14844 z m 17.62695,8.54688 a 2.6128814,2.6128814 0 0 0 -2.61133,2.61133 2.6128814,2.6128814 0 0 0 2.61133,2.61328 2.6128814,2.6128814 0 0 0 2.61328,-2.61328 2.6128814,2.6128814 0 0 0 -2.61328,-2.61133 z m -9.42969,4.96484 a 2.4574721,2.4574721 0 0 0 -2.45703,2.45703 2.4574721,2.4574721 0 0 0 2.45703,2.45703 2.4574721,2.4574721 0 0 0 2.45703,-2.45703 2.4574721,2.4574721 0 0 0 -2.45703,-2.45703 z m 36.20899,7.24219 a 2.1556399,2.1556399 0 0 0 -2.15625,2.15625 2.1556399,2.1556399 0 0 0 2.15625,2.1543 2.1556399,2.1556399 0 0 0 2.15429,-2.1543 2.1556399,2.1556399 0 0 0 -2.15429,-2.15625 z m -18.28907,1.15625 a 4.9760451,4.9760451 0 0 0 -4.35351,2.56641 4.1389599,4.1389599 0 0 0 -3.52735,-1.97071 4.1389599,4.1389599 0 0 0 -4.13867,4.13868 4.1389599,4.1389599 0 0 0 4.13867,4.13867 4.1389599,4.1389599 0 0 0 3.38672,-1.75977 4.9760451,4.9760451 0 0 0 4.49414,2.83984 4.9760451,4.9760451 0 0 0 4.97461,-4.97656 4.9760451,4.9760451 0 0 0 -4.97461,-4.97656 z m -5.0332,11.82617 a 2.9725134,2.9725134 0 0 0 -2.9707,2.97071 2.9725134,2.9725134 0 0 0 2.9707,2.97265 2.9725134,2.9725134 0 0 0 2.97266,-2.97265 2.9725134,2.9725134 0 0 0 -2.97266,-2.97071 z m -36.605468,0.29492 c 0.08667,1.16311 0.159007,2.32365 0.220703,3.48047 0.03262,0.61163 0.06079,1.22038 0.08789,1.82813 a 2.6789787,2.6789787 0 0 0 2.205078,-2.63477 2.6789787,2.6789787 0 0 0 -2.513671,-2.67383 z m 14.724608,3.87696 a 4.8753958,4.8753958 0 0 0 -4.874999,4.875 4.8753958,4.8753958 0 0 0 4.001949,4.79687 5.4297771,5.4297771 0 0 0 -3.792964,5.17774 5.4297771,5.4297771 0 0 0 5.429684,5.42968 5.4297771,5.4297771 0 0 0 5.42969,-5.42968 5.4297771,5.4297771 0 0 0 -4.60156,-5.36719 4.8753958,4.8753958 0 0 0 3.2832,-4.60742 4.8753958,4.8753958 0 0 0 -4.875,-4.875 z m 45.91992,1.8125 a 4.4020319,4.4020319 0 0 0 -4.40234,4.40039 4.4020319,4.4020319 0 0 0 1.20312,3.01562 5.2041025,5.2041025 0 0 0 -2.375,4.35547 5.2041025,5.2041025 0 0 0 5.20508,5.20313 5.2041025,5.2041025 0 0 0 5.20313,-5.20313 5.2041025,5.2041025 0 0 0 -1.95117,-4.05664 4.4020319,4.4020319 0 0 0 1.51757,-3.31445 4.4020319,4.4020319 0 0 0 -4.40039,-4.40039 z m -15.72461,15.73242 a 3.2070475,3.2070475 0 0 0 -3.20703,3.20703 3.2070475,3.2070475 0 0 0 3.20703,3.20703 3.2070475,3.2070475 0 0 0 3.20703,-3.20703 3.2070475,3.2070475 0 0 0 -3.20703,-3.20703 z m -20.68359,5.81836 a 3.7729223,3.7729223 0 0 0 -3.77148,3.77344 3.7729223,3.7729223 0 0 0 3.77148,3.77343 3.7729223,3.7729223 0 0 0 3.77344,-3.77343 3.7729223,3.7729223 0 0 0 -3.77344,-3.77344 z m -18.134766,2.81445 a 2.810529,2.810529 0 0 0 -2.810546,2.81055 2.810529,2.810529 0 0 0 2.810546,2.81055 2.810529,2.810529 0 0 0 2.810547,-2.81055 2.810529,2.810529 0 0 0 -2.810547,-2.81055 z m 39.115236,0.6582 a 5.0850039,5.0850039 0 0 0 -5.08399,5.08399 5.0850039,5.0850039 0 0 0 5.08399,5.08594 5.0850039,5.0850039 0 0 0 5.08594,-5.08594 5.0850039,5.0850039 0 0 0 -5.08594,-5.08399 z m -19.26758,7.94727 a 2.5455759,2.5455759 0 0 0 -2.54492,2.54687 2.5455759,2.5455759 0 0 0 2.54492,2.54493 2.5455759,2.5455759 0 0 0 2.54688,-2.54493 2.5455759,2.5455759 0 0 0 -2.54688,-2.54687 z m 5.68945,2.61914 a 4.8554373,4.8554373 0 0 0 -4.85546,4.85547 4.8554373,4.8554373 0 0 0 4.85546,4.85547 4.8554373,4.8554373 0 0 0 4.85547,-4.85547 4.8554373,4.8554373 0 0 0 -4.85547,-4.85547 z m 23.92383,4.9375 a 5.1444111,5.1444111 0 0 0 -5.14453,5.14453 5.1444111,5.1444111 0 0 0 5.14453,5.14453 5.1444111,5.1444111 0 0 0 0.25391,-0.006 c 1.74236,-1.56281 3.39336,-3.33174 4.88867,-5.29687 a 5.1444111,5.1444111 0 0 0 -5.14258,-4.98633 z m -46.722654,0.58008 a 3.5790851,3.5790851 0 0 0 -0.820313,0.0957 c 1.208683,1.85944 2.534464,3.63141 3.921877,5.26563 a 3.5790851,3.5790851 0 0 0 0.47656,-1.78321 3.5790851,3.5790851 0 0 0 -3.578124,-3.57812 z m 30.769534,10.67773 a 2.1239247,2.1239247 0 0 0 -2.125,2.12305 2.1239247,2.1239247 0 0 0 2.125,2.12305 2.1239247,2.1239247 0 0 0 2.12304,-2.12305 2.1239247,2.1239247 0 0 0 -2.12304,-2.12305 z" />
    </g>
    <circle
       style="stroke:none;stroke-width:65;stroke-linecap:round;stroke-dasharray:none;stroke-opacity:1;opacity:0"
       id="path4"
       cx="27.637794"
       cy="28.797422"
       inkscape:tile-cx="70.544022"
       inkscape:tile-cy="51.603436"
       inkscape:tile-w="7.3443093"
       inkscape:tile-h="7.3443093"
       inkscape:tile-x0="66.871867"
       inkscape:tile-y0="47.931281"
       r="3.6721547" />
    <path
       style="font-size:96px;font-family:C059;-inkscape-font-specification:'C059, Normal';opacity:1;fill:#23701d;fill-opacity:1;stroke-width:65;stroke-linecap:round"
       d="m 36.572475,78.264042 -4.232176,1.564233 3.494566,9.454868 c -10.339615,5.25443 -14.550004,14.077277 -11.088721,23.442087 2.196584,5.94306 6.695178,9.80711 12.622689,10.89139 2.963755,0.54214 6.187851,0.68101 11.279436,0.33435 l 9.285558,25.12292 c -6.649742,1.94604 -12.624219,1.28851 -13.655948,-1.50293 -0.166408,-0.45023 -0.08616,-0.78693 0.354273,-1.25676 2.48599,-2.96578 2.943994,-4.77262 1.978829,-7.38396 -1.164855,-3.15162 -4.494708,-4.68427 -7.556282,-3.5527 -3.691899,1.36455 -5.195152,5.60466 -3.531073,10.10698 2.196583,5.94305 8.079153,9.39793 15.451291,9.12949 2.820831,-0.12147 4.631556,-0.48368 8.390017,-1.66813 l 3.960507,10.71551 4.232176,-1.56424 -3.993788,-10.80555 c 11.743188,-5.05678 16.227602,-14.79968 12.034124,-26.14551 -3.461283,-9.36482 -9.69424,-12.38315 -23.541939,-11.35886 -1.393775,0.10575 -1.697195,0.11555 -2.304036,0.13515 L 41.498149,91.590903 c 5.06219,-1.25693 10.149888,-0.78338 10.848801,1.10759 0.09985,0.27014 0.05288,0.69689 -0.207462,1.10015 -1.91243,2.85614 -2.176657,4.07962 -1.377899,6.240727 1.131573,3.06158 4.058161,4.33388 7.299828,3.13575 3.511806,-1.29798 4.71755,-4.404657 3.286443,-8.276647 -2.695808,-7.29375 -11.2328,-10.17693 -21.3141,-7.26961 z m 8.448103,35.871878 c -8.88924,0.31743 -12.925779,-1.46576 -14.85611,-6.68844 -1.996894,-5.40278 1.007751,-11.118937 7.201349,-14.022207 z m 8.292528,9.42141 c 2.877595,-0.24479 2.877595,-0.24479 4.214605,-0.22722 6.471675,0.0644 10.807747,2.65798 12.604952,7.52048 1.69736,4.59236 0.323347,10.01288 -3.480055,13.56793 -1.297816,1.19611 -2.278527,1.86563 -4.519886,3.00109 z"
       id="text8508"
       aria-label="$" />
    <path
       style="font-size:96px;font-family:C059;-inkscape-font-specification:'C059, Normal';opacity:1;fill:#23701d;fill-opacity:1;stroke-width:41.361;stroke-linecap:round"
       d="m 159.15197,5.5114325 -2.13104,1.9392139 4.33029,4.7010556 c -4.86359,5.577985 -5.24541,11.768763 -0.95636,16.425038 2.72191,2.954948 6.30916,4.134833 10.0773,3.339503 1.88408,-0.397666 3.82579,-1.094687 6.75682,-2.527359 l 11.50621,12.491363 c -3.47078,2.746849 -7.16465,3.803789 -8.44312,2.415857 -0.2062,-0.22386 -0.23926,-0.440686 -0.0909,-0.82257 0.76212,-2.339531 0.60103,-3.509744 -0.59496,-4.808128 -1.44343,-1.567015 -3.78116,-1.661839 -5.32276,-0.259008 -1.859,1.691657 -1.73457,4.541241 0.32747,6.779839 2.7219,2.954943 7.03052,3.560706 11.33023,1.623262 1.64073,-0.752327 2.62593,-1.401951 4.56741,-3.004059 l 4.90767,5.327856 2.13104,-1.939217 -4.94891,-5.372624 c 5.74173,-5.800972 6.06566,-12.597479 0.86931,-18.238736 -4.28905,-4.656284 -8.70066,-4.921427 -16.65275,-0.977182 -0.79974,0.39855 -0.977,0.477559 -1.33153,0.635572 l -10.22775,-11.10343 c 2.69588,-1.959402 5.82081,-2.9101208 6.68686,-1.969911 0.12379,0.13429 0.198,0.395927 0.14037,0.695273 -0.44884,2.136747 -0.31259,2.918062 0.6772,3.992582 1.40219,1.522249 3.43893,1.561761 5.07122,0.07641 1.76831,-1.609131 1.73891,-3.72218 -0.0345,-5.6473687 -3.34051,-3.626525 -9.08365,-3.2560971 -14.35579,0.8830497 z m 13.58175,18.9973115 c -5.18604,2.332481 -8.00201,2.261356 -10.39398,-0.335413 -2.47446,-2.686315 -2.06323,-6.764041 0.90857,-9.962124 z m 7.16244,3.522955 c 1.64482,-0.838355 1.64482,-0.838355 2.44046,-1.150875 3.84631,-1.524831 7.03344,-1.050772 9.26045,1.36691 2.10329,2.283366 2.58658,5.793999 1.18557,8.7972 -0.48212,1.01482 -0.90249,1.644257 -1.95764,2.851328 z"
       id="path8508"
       aria-label="$" />
    <path
       style="font-size:96px;font-family:C059;-inkscape-font-specification:'C059, Normal';opacity:1;fill:#23701d;fill-opacity:1;stroke-width:41.361;stroke-linecap:round"
       d="m 220.2034,26.912638 -2.77019,0.792411 1.79502,6.134268 c -6.8335,2.841069 -9.92238,8.219766 -8.14445,14.295607 1.1283,3.855832 3.81967,6.504801 7.54949,7.463867 1.86493,0.479535 3.91432,0.71636 7.17671,0.732841 l 4.76962,16.299623 c -4.32917,0.921795 -8.10851,0.230135 -8.63848,-1.580937 -0.0855,-0.29211 -0.0189,-0.501084 0.28349,-0.777508 1.721,-1.758526 2.09583,-2.878727 1.60006,-4.572955 -0.59834,-2.044753 -2.65131,-3.166926 -4.65529,-2.593693 -2.41655,0.691251 -3.56933,3.30022 -2.71456,6.221298 1.1283,3.855825 4.72087,6.31032 9.43381,6.481691 1.80419,0.05372 2.97535,-0.09135 5.42609,-0.665761 l 2.03436,6.952168 2.77019,-0.792409 -2.05145,-7.01059 c 7.71941,-2.651299 11.02515,-8.59853 8.87113,-15.959645 -1.77792,-6.07585 -5.61392,-8.270787 -14.49044,-8.264144 -0.89355,0.0024 -1.08747,-0.0055 -1.4753,-0.02117 l -4.23967,-14.488558 c 3.28535,-0.559899 6.50769,-0.02547 6.86668,1.201381 0.0515,0.175249 0.002,0.442673 -0.18268,0.685375 -1.35026,1.715786 -1.57481,2.476443 -1.1645,3.878559 0.58124,1.986337 2.38901,2.925397 4.51086,2.31845 2.29868,-0.65753 3.20983,-2.564263 2.47468,-5.076408 -1.38473,-4.732149 -6.69601,-6.948263 -13.25728,-5.577925 z m 3.74317,23.051039 c -5.68252,-0.210575 -8.1746,-1.523691 -9.16614,-4.91214 -1.02573,-3.505298 1.152,-6.977256 5.23419,-8.524825 z m 4.85585,6.335022 c 1.84602,-0.02156 1.84602,-0.02156 2.69772,0.05137 4.12355,0.339976 6.76949,2.17887 7.69265,5.333636 0.87187,2.979501 -0.2526,6.340113 -2.84061,8.409952 -0.88231,0.695563 -1.53831,1.07315 -3.01947,1.686768 z"
       id="path8509"
       aria-label="$" />
    <path
       style="font-size:96px;font-family:C059;-inkscape-font-specification:'C059, Normal';opacity:1;fill:#23701d;fill-opacity:1;stroke-width:41.361;stroke-linecap:round"
       d="m 221.90389,86.332848 -2.73918,0.893744 2.01939,6.064102 c -6.7244,3.090452 -9.61339,8.579106 -7.61323,14.585456 1.26933,3.81172 4.0563,6.35993 7.81886,7.18118 1.8813,0.41064 3.93801,0.57194 7.19881,0.46844 l 5.3658,16.11318 c -4.29235,1.08038 -8.09457,0.52817 -8.69077,-1.26219 -0.0961,-0.28877 -0.0374,-0.50004 0.2547,-0.78741 1.65517,-1.82062 1.98855,-2.95384 1.43081,-4.62869 -0.67313,-2.02137 -2.76598,-3.06729 -4.74752,-2.42076 -2.3895,0.77965 -3.44555,3.42926 -2.48394,6.31693 1.26932,3.81172 4.94973,6.13244 9.66579,6.13038 1.80494,-0.0127 2.96997,-0.20071 5.39793,-0.86485 l 2.28864,6.87265 2.73918,-0.89374 -2.30787,-6.93041 c 7.61669,-2.93338 10.70149,-8.99815 8.27822,-16.27507 -2.00015,-6.00637 -5.91426,-8.05875 -14.78454,-7.72569 -0.89286,0.0352 -1.08693,0.0345 -1.47507,0.0331 l -4.76961,-14.322838 c 3.26253,-0.680345 6.50234,-0.264771 6.90621,0.948048 0.0579,0.173233 0.0181,0.442309 -0.15735,0.691625 -1.28625,1.764282 -1.48267,2.53268 -1.02109,3.918765 0.6539,1.96361 2.49498,2.83556 4.59307,2.151 2.27294,-0.74162 3.11337,-2.680574 2.28632,-5.163986 -1.55781,-4.678026 -6.94699,-6.697317 -13.45342,-5.086621 z m 4.58833,22.897792 c -5.68643,-0.001 -8.22511,-1.22205 -9.34059,-4.57174 -1.15394,-3.46521 0.89464,-7.014904 4.91716,-8.711543 z m 5.08553,6.15217 c 1.84398,-0.0894 1.84398,-0.0894 2.69778,-0.0479 4.13326,0.18811 6.84504,1.92845 7.88358,5.04714 0.98086,2.94542 -0.0193,6.34512 -2.52941,8.50873 -0.85614,0.72753 -1.49781,1.12899 -2.9554,1.79666 z"
       id="path8510"
       aria-label="$" />
    <path
       style="font-size:96px;font-family:C059;-inkscape-font-specification:'C059, Normal';opacity:1;fill:#23701d;fill-opacity:1;stroke-width:41.361;stroke-linecap:round"
       d="m 236.99798,171.96553 -2.87427,-0.20131 -0.40771,6.37847 c -7.3929,0.33666 -12.1329,4.33716 -12.53673,10.6549 -0.2563,4.00934 1.36867,7.41815 4.54674,9.59328 1.58905,1.08758 3.43436,2.01003 6.49501,3.13962 l -1.0834,16.94854 c -4.38371,-0.61202 -7.69964,-2.55273 -7.57926,-4.43591 0.0192,-0.30373 0.15326,-0.47744 0.53196,-0.63396 2.21807,-1.06508 2.9529,-1.98993 3.06551,-3.75161 0.13593,-2.12616 -1.41042,-3.88196 -3.48968,-4.02755 -2.50734,-0.17546 -4.48177,1.88292 -4.67593,4.92029 -0.2563,4.00932 2.28211,7.54312 6.65319,9.31365 1.6774,0.66658 2.82768,0.9302 5.32724,1.22725 l -0.46212,7.22894 2.87426,0.20132 0.46597,-7.28971 c 8.16076,0.14425 13.29872,-4.31655 13.78799,-11.97073 0.40387,-6.31775 -2.45196,-9.69071 -10.79712,-12.71577 -0.84063,-0.30295 -1.02021,-0.37653 -1.37937,-0.52371 l 0.96301,-15.06537 c 3.27903,0.59569 6.12514,2.19842 6.0436,3.4741 -0.0113,0.18231 -0.14946,0.41668 -0.40575,0.58179 -1.85502,1.15152 -2.32583,1.78977 -2.41902,3.24771 -0.132,2.06542 1.24638,3.56537 3.44794,3.71952 2.38505,0.16652 3.89256,-1.31396 4.05948,-3.92613 0.31455,-4.92055 -3.92065,-8.81722 -10.55543,-9.76991 z m -4.35373,22.94356 c -5.26917,-2.13805 -7.16283,-4.2237 -6.93762,-7.74705 0.23303,-3.64485 3.46547,-6.16441 7.83074,-6.22487 z m 2.40054,7.61244 c 1.74239,0.61017 1.74239,0.61017 2.51801,0.96951 3.75955,1.72774 5.61845,4.35966 5.40875,7.64002 -0.19804,3.09813 -2.40256,5.8727 -5.54181,6.93432 -1.06679,0.35243 -1.8123,0.4833 -3.41397,0.55422 z"
       id="path8511"
       aria-label="$" />
    <path
       style="font-size:96px;font-family:C059;-inkscape-font-specification:'C059, Normal';opacity:1;fill:#23701d;fill-opacity:1;stroke-width:30.8163;stroke-linecap:round"
       d="m 95.227763,120.69727 -2.034408,0.34925 0.530617,4.9338 c -5.123488,1.54948 -7.92452,5.4281 -7.398963,10.3149 0.333524,3.10124 1.904974,5.41571 4.404092,6.51809 1.249557,0.55121 2.657097,0.9317 4.940449,1.25758 l 1.409915,13.10979 c -3.141816,0.30004 -5.707287,-0.59952 -5.863942,-2.05617 -0.02525,-0.23494 0.04614,-0.39076 0.290693,-0.57631 1.413919,-1.19984 1.8092,-2.03339 1.662652,-3.39606 -0.176869,-1.64459 -1.482018,-2.71267 -2.953718,-2.46002 -1.774699,0.30465 -2.89133,2.21914 -2.638659,4.56857 0.333523,3.10124 2.559304,5.35124 5.840415,5.93654 1.257481,0.21478 2.09505,0.21462 3.879855,0.004 l 0.601366,5.59163 2.034411,-0.34925 -0.606428,-5.63862 c 5.72157,-1.31717 8.74189,-5.61627 8.10516,-11.53683 -0.52559,-4.8868 -2.9526,-6.95868 -9.171404,-7.80538 -0.626203,-0.0839 -0.761117,-0.10862 -1.030926,-0.15806 l -1.253262,-11.65311 c 2.367724,-0.11931 4.561652,0.60476 4.667782,1.59151 0.0152,0.14097 -0.0512,0.34379 -0.20918,0.51447 -1.149159,1.20224 -1.396573,1.77113 -1.275294,2.89886 0.171828,1.59761 1.326914,2.50001 2.885164,2.23251 1.68813,-0.28981 2.55231,-1.68238 2.33501,-3.70288 -0.40932,-3.80607 -3.86731,-6.03598 -8.625839,-5.60196 z m -0.109046,18.25186 c -3.955654,-0.7088 -5.545781,-1.96722 -5.838881,-4.69255 -0.303209,-2.81931 1.633655,-5.30532 4.67659,-6.11481 z m 2.650932,5.38336 c 1.2957,0.16042 1.2957,0.16042 1.883674,0.29878 2.848267,0.65957 4.483867,2.34091 4.756767,4.87829 0.25769,2.39642 -0.92814,4.89707 -2.98629,6.25536 -0.70047,0.45523 -1.20473,0.68537 -2.314988,1.01952 z"
       id="path8512"
       aria-label="$" />
    <path
       style="font-size:96px;font-family:C059;-inkscape-font-specification:'C059, Normal';opacity:1;fill:#23701d;fill-opacity:1;stroke-width:30.8163;stroke-linecap:round"
       d="m 23.717384,25.994335 -2.034408,0.34925 0.530617,4.9338 c -5.123488,1.54948 -7.92452,5.4281 -7.398963,10.3149 0.333524,3.10124 1.904974,5.41571 4.404092,6.51809 1.249557,0.55121 2.657097,0.9317 4.940449,1.25758 l 1.409915,13.10979 c -3.141816,0.30004 -5.707287,-0.59952 -5.863942,-2.05617 -0.02525,-0.23494 0.04614,-0.39076 0.290693,-0.57631 1.413919,-1.19984 1.8092,-2.03339 1.662652,-3.39606 -0.176869,-1.64459 -1.482018,-2.71267 -2.953718,-2.46002 -1.774699,0.30465 -2.89133,2.21914 -2.638659,4.56857 0.333523,3.10124 2.559304,5.35124 5.840415,5.93654 1.257481,0.21478 2.09505,0.21462 3.879855,0.004 l 0.601366,5.59163 2.034411,-0.34925 -0.606428,-5.63862 c 5.72157,-1.31717 8.74189,-5.61627 8.10516,-11.53683 -0.52559,-4.8868 -2.9526,-6.95868 -9.171404,-7.80538 -0.626203,-0.0839 -0.761117,-0.10862 -1.030926,-0.15806 l -1.253262,-11.65311 c 2.367724,-0.11931 4.561652,0.60476 4.667782,1.59151 0.0152,0.14097 -0.0512,0.34379 -0.20918,0.51447 -1.149159,1.20224 -1.396573,1.77113 -1.275294,2.89886 0.171828,1.59761 1.326914,2.50001 2.885164,2.23251 1.68813,-0.28981 2.55231,-1.68238 2.33501,-3.70288 -0.40932,-3.80607 -3.86731,-6.03598 -8.625839,-5.60196 z m -0.109046,18.25186 c -3.955654,-0.7088 -5.545781,-1.96722 -5.838881,-4.69255 -0.303209,-2.81931 1.633655,-5.30532 4.67659,-6.11481 z m 2.650932,5.38336 c 1.2957,0.16042 1.2957,0.16042 1.883674,0.29878 2.848267,0.65957 4.483867,2.34091 4.756767,4.87829 0.25769,2.39642 -0.92814,4.89707 -2.98629,6.25536 -0.70047,0.45523 -1.20473,0.68537 -2.314988,1.01952 z"
       id="path8513"
       aria-label="$" />
    <path
       style="font-size:96px;font-family:C059;-inkscape-font-specification:'C059, Normal';opacity:1;fill:#23701d;fill-opacity:1;stroke-width:50.0142;stroke-linecap:round"
       d="m 85.197478,165.67021 -3.484623,0.50173 1.269254,7.54466 c -8.727673,2.28697 -13.281701,8.16787 -12.024533,15.64066 0.797815,4.74236 3.674805,8.3022 8.065233,10.02507 2.195214,0.86143 4.650729,1.46459 8.613236,1.99797 l 3.372591,20.0472 c -5.398586,0.40935 -9.888944,-1.00475 -10.263675,-3.23222 -0.06044,-0.35927 0.05158,-0.59618 0.460156,-0.87579 2.353169,-1.81071 2.975309,-3.07779 2.624753,-5.16155 -0.423084,-2.51489 -2.751269,-4.16671 -5.27206,-3.80375 -3.039778,0.43769 -4.828833,3.34468 -4.224425,6.93736 0.797818,4.74235 4.799005,8.21393 10.501407,9.15913 2.184744,0.34775 3.629681,0.36051 6.693634,0.0665 l 1.438494,8.5506 3.484615,-0.50174 -1.450575,-8.62246 c 9.77613,-1.92277 14.6783,-8.44256 13.15519,-17.49613 -1.25717,-7.4728 -5.5928,-10.67544 -16.381908,-12.06574 -1.086324,-0.13797 -1.320835,-0.1778 -1.789859,-0.25744 l -2.997859,-17.81973 c 4.076137,-0.14534 7.912928,0.99488 8.166779,2.50381 0.03627,0.21557 -0.06367,0.52433 -0.323965,0.7826 -1.896235,1.8185 -2.282251,2.68362 -1.992134,4.4081 0.410996,2.44303 2.468407,3.83946 5.137477,3.45516 2.891499,-0.41633 4.282439,-2.53005 3.762649,-5.61976 -0.97914,-5.82016 -7.104621,-9.28025 -15.282686,-8.69148 z m 1.120962,27.87802 c -6.874958,-1.14434 -9.708427,-3.09139 -10.40954,-7.2589 -0.725289,-4.31122 2.437789,-8.0784 7.629264,-9.26745 z m 4.959376,8.26443 c 2.24679,0.26525 2.24679,0.26525 3.271062,0.48574 4.96098,1.05202 7.903252,3.64568 8.556022,7.52578 0.61649,3.66454 -1.24993,7.46581 -4.703123,9.5085 -1.175778,0.68445 -2.0292,1.02812 -3.920603,1.52124 z"
       id="path8514"
       aria-label="$" />
    <path
       style="font-size:96px;font-family:C059;-inkscape-font-specification:'C059, Normal';opacity:1;fill:#23701d;fill-opacity:1;stroke-width:35.967;stroke-linecap:round"
       d="m 18.549315,149.63492 -2.177367,1.17801 2.723268,4.92221 c -5.196127,3.664 -6.736547,8.82202 -4.039213,13.69734 1.711768,3.09396 4.502112,4.87344 7.833715,5.02007 1.665802,0.0733 3.4391,-0.0943 6.190811,-0.66937 l 7.23611,13.07897 c -3.465215,1.57025 -6.785728,1.66126 -7.589742,0.20803 -0.129679,-0.23438 -0.114834,-0.42515 0.08532,-0.71617 1.102726,-1.81481 1.197349,-2.84056 0.445212,-4.20002 -0.907759,-1.64074 -2.858856,-2.22971 -4.433969,-1.37752 -1.899401,1.02764 -2.35552,3.46718 -1.058728,5.81107 1.711767,3.09395 5.222952,4.54435 9.22728,3.83974 1.530574,-0.27992 2.488596,-0.61549 4.439877,-1.54935 l 3.086372,5.57848 2.177358,-1.17802 -3.112307,-5.62537 c 5.979936,-3.66169 7.590831,-9.34513 4.322909,-15.25176 -2.697334,-4.87532 -6.36235,-6.05977 -13.839225,-4.45097 -0.752322,0.16339 -0.917238,0.1917 -1.247069,0.24834 l -6.432096,-11.62574 c 2.657267,-1.07221 5.477484,-1.1971 6.022137,-0.21266 0.07781,0.14064 0.08889,0.37828 -0.0186,0.61917 -0.79883,1.7113 -0.837823,2.4024 -0.215362,3.52747 0.881819,1.59385 2.59019,2.0705 4.25796,1.1682 1.806755,-0.9775 2.197934,-2.77281 1.082695,-4.78856 -2.10081,-3.79713 -7.012889,-4.73324 -12.270009,-2.37626 z m 7.704206,19.03856 c -4.828911,0.84619 -7.18765,0.1732 -8.69193,-2.54572 -1.55615,-2.81268 -0.40692,-6.17541 2.726679,-8.23623 z m 5.341542,4.5411 c 1.550967,-0.35184 1.550967,-0.35184 2.282896,-0.44329 3.541063,-0.45393 6.133214,0.64091 7.533756,3.17231 1.322728,2.39079 1.038861,5.46806 -0.732831,7.70571 -0.606006,0.75424 -1.084118,1.19564 -2.210814,1.98795 z"
       id="path8515"
       aria-label="$" />
    <path
       style="font-size:96px;font-family:C059;-inkscape-font-specification:'C059, Normal';opacity:1;fill:#23701d;fill-opacity:1;stroke-width:35.967;stroke-linecap:round"
       d="m 19.825871,196.59363 -2.447901,0.36936 0.891634,5.55421 c -6.131074,1.68362 -9.3302183,6.01301 -8.4470743,11.51432 0.5604543,3.49122 2.5815023,6.11189 5.6657183,7.38023 1.542109,0.63417 3.267076,1.0782 6.050684,1.47086 l 2.369201,14.75831 c -3.792435,0.30136 -6.946852,-0.73967 -7.210096,-2.37949 -0.04246,-0.26448 0.03623,-0.43889 0.323253,-0.64474 1.653071,-1.333 2.090116,-2.2658 1.843855,-3.79981 -0.297211,-1.85141 -1.93273,-3.06745 -3.703552,-2.80024 -2.135403,0.32222 -3.392191,2.46228 -2.967602,5.10713 0.560456,3.49121 3.371236,6.04691 7.377098,6.74275 1.534754,0.25601 2.549803,0.2654 4.702189,0.049 l 1.010523,6.29476 2.447896,-0.36937 -1.01901,-6.34767 c 6.867602,-1.4155 10.311311,-6.21522 9.241347,-12.88026 -0.883145,-5.50131 -3.928868,-7.85903 -11.508073,-8.88254 -0.763129,-0.10157 -0.927869,-0.13089 -1.257353,-0.18952 l -2.105956,-13.11849 c 2.863432,-0.107 5.558727,0.73241 5.737054,1.84325 0.02548,0.1587 -0.04473,0.386 -0.227581,0.57613 -1.33208,1.33874 -1.603251,1.97562 -1.399448,3.24515 0.28872,1.7985 1.734024,2.82652 3.60901,2.54361 2.03124,-0.30649 3.008356,-1.86257 2.643211,-4.13714 -0.687833,-4.28468 -4.990902,-6.83192 -10.735884,-6.39848 z m 0.787461,20.52319 c -4.829567,-0.84244 -6.82004,-2.27582 -7.312563,-5.34385 -0.509506,-3.17382 1.712515,-5.94714 5.359456,-6.82249 z m 3.483896,6.08409 c 1.57834,0.19527 1.57834,0.19527 2.297878,0.35759 3.485022,0.77447 5.551929,2.68387 6.010492,5.54031 0.433076,2.69776 -0.87806,5.49617 -3.303882,6.99995 -0.825968,0.50388 -1.425486,0.75688 -2.754172,1.1199 z"
       id="path8516"
       aria-label="$" />
    <path
       style="font-size:96px;font-family:C059;-inkscape-font-specification:'C059, Normal';opacity:1;fill:#23701d;fill-opacity:1;stroke-width:35.967;stroke-linecap:round"
       d="m 51.908906,198.1398 -2.447901,0.36936 0.891634,5.55421 c -6.131074,1.68362 -9.330218,6.01301 -8.447074,11.51432 0.560454,3.49122 2.581502,6.11189 5.665718,7.38023 1.542109,0.63417 3.267076,1.0782 6.050684,1.47086 l 2.369201,14.75831 c -3.792435,0.30136 -6.946852,-0.73967 -7.210096,-2.37949 -0.04246,-0.26448 0.03623,-0.43889 0.323253,-0.64474 1.653071,-1.333 2.090116,-2.2658 1.843855,-3.79981 -0.297211,-1.85141 -1.93273,-3.06745 -3.703552,-2.80024 -2.135403,0.32222 -3.392191,2.46228 -2.967602,5.10713 0.560456,3.49121 3.371236,6.04691 7.377098,6.74275 1.534754,0.25601 2.549803,0.2654 4.702189,0.049 l 1.010523,6.29476 2.447896,-0.36937 -1.01901,-6.34767 c 6.867602,-1.4155 10.311311,-6.21522 9.241347,-12.88026 -0.883145,-5.50131 -3.928868,-7.85903 -11.508073,-8.88254 -0.763129,-0.10157 -0.927869,-0.13089 -1.257353,-0.18952 L 53.165687,205.9686 c 2.863432,-0.107 5.558727,0.73241 5.737054,1.84325 0.02548,0.1587 -0.04473,0.386 -0.227581,0.57613 -1.33208,1.33874 -1.603251,1.97562 -1.399448,3.24515 0.28872,1.7985 1.734024,2.82652 3.60901,2.54361 2.03124,-0.30649 3.008356,-1.86257 2.643211,-4.13714 -0.687833,-4.28468 -4.990902,-6.83192 -10.735884,-6.39848 z m 0.787461,20.52319 c -4.829567,-0.84244 -6.82004,-2.27582 -7.312563,-5.34385 -0.509506,-3.17382 1.712515,-5.94714 5.359456,-6.82249 z m 3.483896,6.08409 c 1.57834,0.19527 1.57834,0.19527 2.297878,0.35759 3.485022,0.77447 5.551929,2.68387 6.010492,5.54031 0.433076,2.69776 -0.87806,5.49617 -3.303882,6.99995 -0.825968,0.50388 -1.425486,0.75688 -2.754172,1.1199 z"
       id="path8517"
       aria-label="$" />
    <path
       style="font-size:96px;font-family:C059;-inkscape-font-specification:'C059, Normal';opacity:1;fill:#23701d;fill-opacity:1;stroke-width:23.8855;stroke-linecap:round"
       d="m 128.36877,1.9349846 -1.53642,0.6855322 1.96466,3.1206507 c -3.6608,2.1663772 -4.71867,5.3412915 -2.77272,8.4322155 1.23494,1.961553 3.22602,3.128882 5.59003,3.292308 1.18201,0.08171 2.43862,0.01592 4.38647,-0.282146 l 5.22039,8.292007 c -2.44721,0.901573 -4.80174,0.886203 -5.38179,-0.03513 -0.0936,-0.148601 -0.0843,-0.266933 0.0557,-0.443603 0.76992,-1.10491 0.83013,-1.740884 0.28751,-2.602776 -0.65489,-1.040215 -2.04272,-1.448852 -3.15417,-0.952937 -1.34028,0.598017 -1.64737,2.105527 -0.71181,3.591551 1.23492,1.961547 3.73508,2.939817 6.5705,2.588346 1.08372,-0.140914 1.76095,-0.328886 3.13865,-0.86746 l 2.22662,3.536735 1.53642,-0.685534 -2.24533,-3.566452 c 4.21676,-2.147953 5.32106,-5.648145 2.96347,-9.392922 -1.94595,-3.090929 -4.55342,-3.907105 -9.84574,-3.068501 -0.5325,0.08532 -0.64928,0.09936 -0.88284,0.12743 l -4.64036,-7.3706834 c 1.87752,-0.6093064 3.87699,-0.6258521 4.26991,-0.00172 0.0562,0.089166 0.0656,0.237217 -0.009,0.3847139 -0.55506,1.0471193 -0.57808,1.4761445 -0.12901,2.1894351 0.63618,1.0104973 1.85109,1.3440074 3.02792,0.8189193 1.27489,-0.5688441 1.54028,-1.6770475 0.73571,-2.9550244 -1.51561,-2.4073593 -5.00592,-3.0961048 -8.71879,-1.7440215 z m 5.59251,12.0090284 c -3.41932,0.421652 -5.09683,-0.04807 -6.18208,-1.771856 -1.12267,-1.783229 -0.33018,-3.8499377 1.87853,-5.063848 z m 3.81918,2.940364 c 1.09768,-0.185223 1.09768,-0.185223 1.6162,-0.226236 2.50854,-0.205601 4.35444,0.531596 5.36484,2.136502 0.95427,1.515743 0.77364,3.423656 -0.46791,4.777074 -0.42475,0.456001 -0.7609,0.720193 -1.5547,1.188584 z"
       id="path8518"
       aria-label="$" />
  </g>
</svg>
